<?xml version="1.0" standalone="no"?>
<!DOCTYPE svg PUBLIC "-//W3C//DTD SVG 20010904//EN"
 "http://www.w3.org/TR/2001/REC-SVG-20010904/DTD/svg10.dtd">
<svg version="1.0" xmlns="http://www.w3.org/2000/svg"
 width="249.000000pt" height="203.000000pt" viewBox="0 0 249.000000 203.000000"
 preserveAspectRatio="xMidYMid meet">
<metadata>
Created by potrace 1.10, written by Peter Selinger 2001-2011
</metadata>
<g transform="translate(0.000000,203.000000) scale(0.100000,-0.100000)"
fill="#000000" stroke="none">
<path d="M1157 1883 c-53 -42 -81 -97 -82 -163 0 -78 35 -128 196 -283 79 -77
136 -141 146 -164 25 -58 24 -186 -3 -240 -12 -24 -18 -43 -13 -43 5 0 28 17
51 38 78 70 97 156 54 248 -31 67 -76 116 -166 182 -131 97 -187 150 -214 204
-14 29 -26 63 -26 75 0 34 26 82 68 125 44 46 38 58 -11 21z"/>
<path d="M1057 1513 c-4 -3 -7 -24 -7 -47 0 -66 33 -119 121 -191 96 -80 111
-102 117 -169 6 -71 -23 -138 -73 -167 -20 -12 -34 -23 -32 -25 2 -2 26 3 53
11 75 22 124 82 124 150 0 81 -51 149 -178 237 -88 62 -128 120 -118 173 7 35
5 41 -7 28z"/>
<path d="M1160 851 c-41 -5 -8 -8 125 -13 178 -6 246 -17 311 -51 41 -21 47
-40 21 -65 -94 -85 -545 -96 -700 -17 -55 28 -58 15 -6 -27 60 -49 169 -71
354 -71 118 -1 178 4 229 16 38 10 70 16 72 15 9 -9 -54 -115 -91 -152 -71
-73 -114 -91 -225 -91 -83 0 -102 3 -151 27 -61 30 -123 88 -169 158 -17 25
-30 40 -30 34 0 -22 78 -131 116 -162 229 -190 545 -85 635 211 20 63 20 69 5
92 -36 55 -157 90 -336 98 -58 3 -130 2 -160 -2z"/>
<path d="M1770 756 c-58 -31 -84 -59 -110 -121 l-21 -50 25 30 c14 17 25 33
26 36 0 10 78 59 94 59 41 0 19 -84 -37 -142 -21 -22 -64 -51 -95 -65 -32 -14
-52 -28 -46 -30 17 -6 114 40 152 72 40 34 70 89 82 155 10 53 5 80 -14 80 -6
-1 -31 -12 -56 -24z"/>
<path d="M1120 764 c-126 -16 -183 -41 -142 -63 24 -13 129 -29 214 -34 62 -3
67 -1 65 17 -3 32 47 51 133 51 41 0 91 -4 110 -9 49 -12 27 9 -25 23 -42 12
-295 22 -355 15z"/>
<path d="M840 511 c-122 -39 -220 -112 -220 -162 0 -116 232 -205 563 -216
299 -11 568 47 663 142 34 34 30 55 -3 22 -99 -94 -411 -153 -681 -128 -210
19 -354 63 -424 129 -21 19 -28 35 -28 63 0 32 7 43 45 77 24 21 66 47 92 57
90 33 84 46 -7 16z"/>
<path d="M1040 390 c0 -6 5 -20 10 -31 45 -83 326 -93 400 -14 30 32 24 31
-35 -1 -81 -46 -255 -46 -299 0 -30 31 -76 59 -76 46z"/>
</g>
</svg>
